<?xml version="1.0" standalone="no"?>
<!DOCTYPE svg PUBLIC "-//W3C//DTD SVG 20010904//EN"
 "http://www.w3.org/TR/2001/REC-SVG-20010904/DTD/svg10.dtd">
<svg version="1.0" xmlns="http://www.w3.org/2000/svg"
 width="523.000000pt" height="477.000000pt" viewBox="0 0 523.000000 477.000000"
 preserveAspectRatio="xMidYMid meet">

<g transform="translate(0.000000,477.000000) scale(0.100000,-0.100000)"
fill="#8f7040" stroke="none">
<path d="M3235 4206 c-118 -39 -199 -95 -282 -195 -104 -125 -170 -298 -195
-509 -26 -225 50 -458 189 -582 142 -127 297 -136 463 -29 231 149 366 452
347 778 -13 209 -74 350 -198 459 -85 75 -231 110 -324 78z m238 -247 c56 -15
73 -47 58 -112 -6 -29 -20 -63 -30 -76 -16 -21 -24 -23 -68 -18 -57 7 -70 1
-74 -33 -4 -23 1 -26 55 -40 75 -19 101 -49 91 -107 -3 -22 -15 -54 -25 -71
-17 -28 -25 -32 -62 -32 -24 0 -58 4 -75 9 -38 11 -31 28 -73 -169 -38 -180
-47 -195 -123 -195 -68 1 -110 27 -115 71 -1 16 12 100 31 186 l34 158 -34 11
c-42 14 -57 41 -50 97 7 64 34 96 85 100 40 3 41 5 55 53 19 63 49 107 97 142
64 45 122 52 223 26z"/>
<path d="M1825 4188 c-216 -82 -334 -331 -304 -646 30 -317 190 -575 429 -691
67 -32 83 -36 155 -35 68 0 89 4 140 30 281 139 359 604 165 989 -79 157 -172
254 -308 322 -65 33 -84 37 -160 40 -48 1 -100 -3 -117 -9z m389 -357 c18 -19
77 -171 150 -383 24 -72 34 -116 30 -133 -12 -47 -130 -90 -169 -62 -18 14
-21 13 -36 -13 -9 -15 -39 -38 -66 -51 -134 -66 -307 7 -381 161 -38 78 -37
181 1 262 52 106 155 171 243 151 43 -10 45 -9 51 14 4 18 21 32 57 49 62 29
97 30 120 5z"/>
<path d="M1959 3541 c-51 -52 -33 -131 34 -149 96 -26 158 82 86 149 -41 38
-81 38 -120 0z"/>
<path d="M4069 3077 c-270 -92 -470 -385 -495 -725 -15 -209 82 -411 231 -483
66 -31 171 -37 251 -14 228 66 425 297 488 571 40 179 31 325 -30 452 -91 189
-257 263 -445 199z m191 -321 c117 -59 175 -141 174 -246 -1 -109 -56 -189
-136 -196 -38 -4 -57 3 -168 65 -96 53 -126 65 -128 54 -10 -41 75 -105 164
-123 70 -15 85 -28 91 -81 5 -56 -22 -104 -66 -114 -66 -14 -229 55 -308 132
-62 61 -87 121 -88 208 0 148 82 273 214 322 60 22 185 12 251 -21z"/>
<path d="M4103 2583 c-51 -10 -44 -28 26 -66 63 -34 71 -36 85 -21 21 21 20
28 -6 58 -23 26 -65 38 -105 29z"/>
<path d="M1042 3019 c-144 -24 -236 -109 -285 -264 -30 -96 -29 -274 2 -390
73 -272 261 -485 498 -564 139 -47 261 -15 360 92 59 66 86 127 103 242 49
321 -138 686 -428 838 -54 29 -166 61 -191 56 -3 -1 -30 -5 -59 -10z m255
-277 c18 -23 27 -81 17 -111 -7 -19 -24 -30 -72 -47 -58 -20 -112 -56 -112
-76 0 -17 50 -7 111 22 119 56 190 50 254 -22 46 -50 65 -95 65 -150 0 -51
-20 -86 -88 -153 -60 -60 -140 -102 -222 -117 -56 -11 -62 -10 -81 9 -12 11
-25 43 -30 69 -13 70 7 95 91 112 70 14 130 46 130 69 0 17 -2 17 -103 -21
-127 -48 -214 -28 -280 65 -40 55 -49 93 -35 148 20 80 145 186 256 216 52 14
81 11 99 -13z"/>
<path d="M2555 2279 c-233 -34 -478 -173 -643 -364 -120 -138 -296 -441 -361
-620 -111 -305 -119 -458 -31 -595 69 -108 165 -162 301 -168 119 -6 209 14
460 104 272 96 320 107 494 107 165 0 195 -8 495 -128 219 -87 266 -99 374
-93 149 9 258 73 313 186 25 52 28 67 27 162 0 94 -4 116 -38 215 -89 263
-331 631 -576 875 -191 191 -344 283 -525 315 -95 16 -195 18 -290 4z m875
-568 c51 -24 58 -55 31 -136 -13 -37 -19 -71 -14 -75 4 -4 26 -13 48 -20 56
-17 75 -37 75 -77 0 -43 -34 -111 -63 -124 -22 -10 -51 -3 -118 25 -13 6 -21
-8 -43 -66 -34 -94 -33 -106 7 -123 54 -22 70 -47 62 -95 -8 -47 -48 -100 -76
-100 -35 0 -131 42 -165 73 -75 65 -82 132 -30 286 26 76 31 101 21 101 -8 0
-26 10 -41 23 -24 21 -26 28 -19 65 4 23 17 56 29 74 20 30 27 33 67 32 l45
-2 25 71 c33 99 65 113 159 68z m-526 -85 c137 -68 181 -254 80 -336 -28 -22
-33 -22 -171 -16 -152 6 -168 2 -110 -35 28 -18 42 -19 107 -14 147 13 142 13
167 -24 13 -19 23 -48 23 -65 -1 -61 -36 -83 -152 -96 -137 -16 -271 24 -324
97 -56 76 -69 114 -69 208 0 76 4 97 25 139 32 63 110 132 169 151 65 20 204
15 255 -9z m-673 -71 c155 -54 238 -223 184 -375 -40 -113 -118 -175 -221
-175 l-60 0 33 -105 c18 -58 32 -118 31 -134 -3 -34 -39 -64 -92 -76 -49 -11
-74 -3 -90 29 -17 32 -216 691 -216 713 0 48 133 99 167 65 15 -14 18 -13 36
10 45 57 142 77 228 48z"/>
<path d="M2732 1455 c-22 -10 -31 -19 -26 -27 4 -7 4 -10 -1 -6 -9 9 -35 -9
-35 -23 0 -5 36 -9 80 -9 78 0 80 1 80 24 0 43 -47 63 -98 41z"/>
<path d="M2091 1343 c-12 -10 -24 -35 -28 -55 -5 -32 -1 -41 25 -68 39 -39 74
-39 113 -1 37 38 39 82 4 116 -29 30 -83 33 -114 8z"/>
</g>
</svg>
